<svg width="85" height="19" fill="none" xmlns="http://www.w3.org/2000/svg"><path stroke="#28282A" d="M0 3.5h30m-30 5h22m-22 5h15"/><path d="M29.719 11.021v.728h-1.612v1.755h-.819v-1.755h-1.612v-.728h1.612V9.266h.819v1.755h1.612zM57.406 13V4.838l-3.627 6.314h-.574L49.58 4.838V13h-.98V3.06h1.008l3.878 6.804 3.906-6.804h.993V13h-.98zm6.47.14a3.627 3.627 0 01-1.47-.294 3.758 3.758 0 01-1.149-.826 4.031 4.031 0 01-.77-1.218 4.03 4.03 0 01-.266-1.47c0-.513.089-.994.266-1.442.187-.457.439-.854.756-1.19a3.527 3.527 0 011.162-.812 3.453 3.453 0 011.456-.308c.532 0 1.018.103 1.456.308.448.196.83.467 1.148.812a3.843 3.843 0 011.008 2.618v.224a.56.56 0 01-.014.154h-6.244c.028.392.117.756.266 1.092.159.327.36.611.602.854.243.243.518.434.826.574a2.621 2.621 0 001.708.098c.233-.065.448-.154.644-.266.196-.112.374-.247.532-.406.159-.168.28-.35.364-.546l.826.224c-.112.27-.27.518-.476.742a3.629 3.629 0 01-.714.574c-.27.159-.57.28-.896.364-.327.093-.667.14-1.022.14zm2.687-4.172a2.8 2.8 0 00-.28-1.064 2.718 2.718 0 00-.588-.84 2.5 2.5 0 00-.826-.546 2.518 2.518 0 00-.994-.196 2.664 2.664 0 00-1.848.742 2.851 2.851 0 00-.574.84c-.14.327-.224.681-.252 1.064h5.362zM75.213 13h-.951V8.926c0-.868-.13-1.498-.392-1.89-.252-.392-.644-.588-1.176-.588-.28 0-.56.051-.84.154a2.94 2.94 0 00-.784.434 3.34 3.34 0 00-.63.672 2.525 2.525 0 00-.406.826V13h-.952V5.706h.868v1.652a3.441 3.441 0 011.274-1.288 3.55 3.55 0 011.82-.49c.401 0 .742.075 1.022.224.28.15.504.36.672.63.168.27.29.602.364.994.075.392.112.826.112 1.302V13zm4.453.14c-.793 0-1.386-.261-1.778-.784-.383-.532-.574-1.32-.574-2.366V5.706h.952v4.116c0 1.652.565 2.478 1.694 2.478.28 0 .555-.047.826-.14a2.5 2.5 0 00.742-.406 3.03 3.03 0 00.616-.63c.187-.243.336-.518.448-.826V5.706h.952v6.062c0 .261.112.392.336.392V13a1.756 1.756 0 01-.28.028h-.14a.76.76 0 01-.546-.238c-.14-.15-.21-.35-.21-.602v-.84a3.454 3.454 0 01-3.038 1.792z" fill="#28282A"/></svg>