<svg width="88" height="88" fill="none" xmlns="http://www.w3.org/2000/svg"><g filter="url(#filter0_d)"><path d="M39.932 32.542c0 9.736-7.892 17.627-17.627 17.627S4.678 42.279 4.678 32.543c0-9.735 7.892-17.627 17.627-17.627s17.627 7.892 17.627 17.627z" fill="#89898B"/><path d="M83.322 42.034c0 14.977-12.141 27.119-27.119 27.119-14.977 0-27.118-12.142-27.118-27.12 0-14.977 12.14-27.118 27.118-27.118 14.978 0 27.119 12.141 27.119 27.119z" fill="url(#paint0_linear)"/><path d="M81.966 70.508a2.712 2.712 0 11-5.424 0 2.712 2.712 0 015.424 0z" fill="#89898B"/><path d="M42.644 9.492a4.068 4.068 0 11-8.136-.001 4.068 4.068 0 018.136 0z" fill="#B6ACAC"/><path d="M8.44 35.364c-.028-.312-.646-7.718 3.73-12.51A12.69 12.69 0 0122 18.97v1.867c-2.92-.179-6.45 1.577-8.5 3.662-3.577 3.915-3.317 10.422-3.305 10.487l-1.754.377zM77.5 40.5c-2.517-18.874-19.272-20-19.94-20v-1.517c.188 0 18.847.247 21.682 21.516H77.5z" fill="#E6F1FD"/><path d="M52.136 66.44c0 7.49-6.071 13.56-13.56 13.56-7.489 0-13.559-6.07-13.559-13.56 0-7.488 6.07-13.559 13.56-13.559 7.488 0 13.559 6.07 13.559 13.56zM13.66 62.818v1.584h-1.998v2.178H9.88v-2.178H7.882v-1.584H9.88V60.64h1.782v2.178h1.998z" fill="#89898B"/><path d="M75.026 10.699v.792h-1.298v1.408h-.88v-1.408H71.55v-.792h1.298V9.291h.88v1.408h1.298z" fill="#B4AAAA"/><path d="M54.026 27.699v.792h-1.298v1.408h-.88v-1.408H50.55v-.792h1.298v-1.408h.88v1.408h1.298z" fill="#CDBFBF"/></g><defs><linearGradient id="paint0_linear" x1="56" y1="69" x2="65.5" y2="15" gradientUnits="userSpaceOnUse"><stop stop-color="#8B8989"/><stop offset="1" stop-color="#9B7B7B" stop-opacity=".29"/></linearGradient><filter id="filter0_d" x="0" y="0" width="88" height="88" filterUnits="userSpaceOnUse" color-interpolation-filters="sRGB"><feFlood flood-opacity="0" result="BackgroundImageFix"/><feColorMatrix in="SourceAlpha" values="0 0 0 0 0 0 0 0 0 0 0 0 0 0 0 0 0 0 127 0"/><feOffset dy="4"/><feGaussianBlur stdDeviation="2"/><feColorMatrix values="0 0 0 0 0 0 0 0 0 0 0 0 0 0 0 0 0 0 0.25 0"/><feBlend in2="BackgroundImageFix" result="effect1_dropShadow"/><feBlend in="SourceGraphic" in2="effect1_dropShadow" result="shape"/></filter></defs></svg>